<svg width="195" height="80" viewBox="0 0 195 80" fill="none" xmlns="http://www.w3.org/2000/svg">
<path d="M59.4517 69.0021L80.5174 19.2895C82.3402 18.8753 83.728 18.7303 84.6809 18.8545L63.6773 68.505C62.2688 69.0021 60.8602 69.1679 59.4517 69.0021Z" fill="white"/>
<path d="M51.2962 22.3966V59.6811L56.0811 60.9239C56.2054 61.711 56.1018 62.436 55.7704 63.0988C52.0419 62.8917 49.5149 62.7881 48.1892 62.7881C46.3664 62.7881 43.5287 62.8917 39.6759 63.0988C39.5516 62.2289 39.5931 61.5039 39.8002 60.9239C42.0787 60.6339 43.7358 60.2196 44.7715 59.6811V22.3966L39.9866 21.1538C39.8623 20.3667 39.9659 19.6417 40.2973 18.9789C44.0258 19.186 46.5528 19.2896 47.8785 19.2896C49.7427 19.2896 52.5805 19.186 56.3918 18.9789C56.5161 19.8074 56.4746 20.5324 56.2675 21.1538C54.1133 21.5267 52.4562 21.9409 51.2962 22.3966Z" fill="white"/>
<path d="M34.0531 56.0148C34.9231 56.2633 35.3995 56.9469 35.4824 58.0654C31.4225 62.0424 26.6998 64.0309 21.3143 64.0309C18.4972 64.0309 15.8045 63.5752 13.236 62.6638C10.7089 61.711 8.45114 60.3232 6.46264 58.5004C4.51556 56.6776 2.94133 54.2748 1.73994 51.2921C0.579981 48.2679 0 44.8501 0 41.0388C0 37.269 0.642121 33.8926 1.92636 30.9099C3.25203 27.8857 4.99198 25.4415 7.14619 23.5773C9.34183 21.7131 11.6825 20.3252 14.1681 19.4139C16.6952 18.5025 19.2844 18.0468 21.9357 18.0468C27.7355 18.0468 32.3339 18.9789 35.7309 20.8431C35.8967 23.7844 35.2545 27.1814 33.8046 31.0342C32.7689 31.1999 31.8575 31.0963 31.0704 30.7235L30.3868 22.7073C28.1498 21.7545 25.4777 21.2988 22.3707 21.3402C18.0623 21.3402 14.4581 23.2459 11.5582 27.0572C8.65828 30.827 7.20833 35.4876 7.20833 41.0388C7.20833 47.0458 8.47186 51.8306 10.9989 55.3934C13.5674 58.9561 17.2337 60.7375 21.9978 60.7375C26.3063 60.7375 30.3247 59.1632 34.0531 56.0148Z" fill="white"/>
<path d="M157.951 51.8486V55.6029L158.016 55.6677C158.602 55.1498 159.25 54.8909 159.957 54.8909C160.803 54.8995 161.468 55.2102 161.951 55.823C162.434 56.4271 162.676 57.2427 162.676 58.2698C162.676 59.3745 162.357 60.2333 161.718 60.8461C161.079 61.4502 160.234 61.7523 159.181 61.7523C158.309 61.735 157.489 61.571 156.721 61.2603V52.6124L155.646 52.5088C155.621 52.3362 155.642 52.1852 155.711 52.0557C156.289 51.9694 156.863 51.8529 157.433 51.7062C157.597 51.7148 157.77 51.7623 157.951 51.8486ZM158.016 56.4185V60.9367C158.395 61.1352 158.827 61.2344 159.31 61.2344C159.923 61.2344 160.406 60.9755 160.76 60.4577C161.114 59.9312 161.291 59.2019 161.291 58.2698C161.291 57.424 161.131 56.7767 160.812 56.3279C160.493 55.8791 160.078 55.6547 159.569 55.6547C159.276 55.6547 158.974 55.7367 158.663 55.9007C158.361 56.0647 158.145 56.2373 158.016 56.4185Z" fill="white"/>
<path d="M151.036 59.9399C151.036 60.2851 151.127 60.5484 151.308 60.7296C151.498 60.9109 151.753 61.0015 152.072 61.0015C152.314 61.0015 152.568 60.9281 152.836 60.7814C153.112 60.6347 153.319 60.4621 153.457 60.2636V58.5159C152.568 58.5159 151.943 58.6237 151.58 58.8395C151.218 59.0466 151.036 59.4134 151.036 59.9399ZM154.726 57.3895V60.8591C154.855 60.9281 155.158 61.0144 155.632 61.118C155.658 61.282 155.637 61.433 155.568 61.5711C155.248 61.6315 154.886 61.6617 154.48 61.6617C154.195 61.6617 153.949 61.6358 153.742 61.5841L153.561 60.9109H153.509C152.991 61.446 152.348 61.7135 151.58 61.7135C151.028 61.7135 150.583 61.5711 150.247 61.2863C149.91 60.9929 149.742 60.5872 149.742 60.0694C149.75 58.6453 150.989 57.9549 153.457 57.998L153.47 56.8588C153.479 55.8576 153.099 55.3527 152.331 55.3441C151.874 55.3441 151.468 55.4088 151.114 55.5383L150.946 56.9105C150.773 56.971 150.583 56.9882 150.376 56.9623C150.195 56.3064 150.109 55.7454 150.117 55.2794C150.834 54.9341 151.688 54.7615 152.681 54.7615C153.423 54.7529 153.949 54.9428 154.26 55.3311C154.571 55.7195 154.726 56.4057 154.726 57.3895Z" fill="white"/>
<path d="M145.148 60.7814H148.255L148.604 59.189C148.786 59.1545 148.941 59.1674 149.071 59.2278C149.157 59.8579 149.2 60.6131 149.2 61.4934H144.501C144.155 61.4934 143.581 61.515 142.779 61.5581C142.753 61.3941 142.762 61.2431 142.805 61.105C143.305 61.0101 143.633 60.9238 143.789 60.8461V53.0785L142.792 52.8196C142.766 52.6556 142.787 52.5045 142.856 52.3665C143.633 52.4096 144.16 52.4312 144.436 52.4312C144.824 52.4312 145.415 52.4096 146.209 52.3665C146.235 52.5304 146.227 52.6815 146.184 52.8196C145.726 52.8627 145.381 52.949 145.148 53.0785V60.7814Z" fill="white"/>
<path d="M189.499 35.6661V39.5499H189.564C190.289 38.9026 190.996 38.5789 191.687 38.5789C192.369 38.5789 192.878 38.7602 193.215 39.1227C193.551 39.4765 193.719 39.9685 193.719 40.5985V44.6636L194.652 44.9225C194.677 45.0865 194.656 45.2375 194.587 45.3756C193.81 45.3324 193.305 45.3109 193.072 45.3109C192.813 45.3109 192.287 45.3324 191.493 45.3756C191.467 45.2116 191.475 45.0606 191.519 44.9225C191.95 44.8362 192.252 44.7499 192.425 44.6636V40.7927C192.425 40.3008 192.313 39.9598 192.088 39.77C191.872 39.5715 191.566 39.4765 191.169 39.4852C190.893 39.4852 190.604 39.5542 190.302 39.6923C190.008 39.8304 189.762 40.0116 189.564 40.236V44.6636L190.431 44.9225C190.457 45.0865 190.435 45.2375 190.366 45.3756C189.59 45.3324 189.106 45.3109 188.916 45.3109C188.666 45.3109 188.14 45.3324 187.337 45.3756C187.311 45.2116 187.32 45.0606 187.363 44.9225C187.846 44.8103 188.148 44.724 188.269 44.6636V36.4299L187.195 36.3263C187.169 36.1537 187.19 36.0027 187.259 35.8732C187.881 35.7783 188.463 35.6618 189.007 35.5237C189.154 35.5323 189.318 35.5798 189.499 35.6661Z" fill="white"/>
<path d="M185.882 40.728L185.714 39.3557C185.446 39.2349 185.123 39.1745 184.743 39.1745C184.406 39.1745 184.109 39.2435 183.85 39.3816C183.6 39.5197 183.388 39.7182 183.215 39.9771C183.043 40.2274 182.913 40.5295 182.827 40.8834C182.741 41.2372 182.698 41.6342 182.698 42.0744C182.698 42.9806 182.875 43.6667 183.228 44.1328C183.591 44.5989 184.07 44.8319 184.665 44.8319C185.226 44.8319 185.822 44.6291 186.452 44.2234C186.564 44.2838 186.642 44.396 186.685 44.56C186.046 45.2073 185.3 45.531 184.445 45.531C184.031 45.531 183.634 45.4533 183.254 45.2979C182.875 45.134 182.542 44.9009 182.257 44.5989C181.973 44.2968 181.744 43.9343 181.571 43.5114C181.407 43.0885 181.321 42.6095 181.312 42.0744C181.312 41.5307 181.399 41.043 181.571 40.6115C181.753 40.18 181.994 39.8175 182.296 39.524C182.598 39.2219 182.957 38.9932 183.371 38.8379C183.785 38.6825 184.23 38.6049 184.704 38.6049C185.412 38.6049 186.081 38.7429 186.711 39.0191C186.711 39.6492 186.625 40.2361 186.452 40.7798C186.417 40.7884 186.348 40.7927 186.245 40.7927C186.107 40.7927 185.986 40.7712 185.882 40.728Z" fill="white"/>
<path d="M177.923 40.9481V44.6636L179.179 44.9225C179.205 45.0865 179.184 45.2375 179.115 45.3756C178.338 45.3325 177.725 45.3109 177.276 45.3109C176.931 45.3109 176.404 45.3325 175.697 45.3756C175.671 45.2117 175.679 45.0606 175.723 44.9225C176.206 44.819 176.508 44.7327 176.629 44.6636V39.6147L175.554 39.5111C175.528 39.3385 175.55 39.1875 175.619 39.058C176.335 38.9544 176.94 38.8379 177.432 38.7084C177.526 38.7084 177.669 38.7559 177.859 38.8509V40.0289L177.872 40.0419C178.51 39.0925 179.166 38.6178 179.839 38.6178C180.185 38.6092 180.47 38.6739 180.694 38.812C180.72 39.4507 180.634 40.098 180.435 40.7539C180.219 40.7798 180.025 40.7625 179.852 40.7021L179.671 39.4075C178.955 39.4075 178.372 39.9211 177.923 40.9481Z" fill="white"/>
<path d="M170.582 43.7574C170.582 44.1026 170.672 44.3659 170.854 44.5471C171.044 44.7284 171.298 44.819 171.618 44.819C171.859 44.819 172.114 44.7456 172.381 44.5989C172.658 44.4522 172.865 44.2796 173.003 44.0811V42.3334C172.114 42.3334 171.488 42.4412 171.126 42.657C170.763 42.8641 170.582 43.2309 170.582 43.7574ZM174.271 41.2071V44.6766C174.401 44.7456 174.703 44.8319 175.178 44.9355C175.204 45.0995 175.182 45.2505 175.113 45.3886C174.794 45.449 174.431 45.4792 174.025 45.4792C173.741 45.4792 173.495 45.4533 173.288 45.4016L173.106 44.7284H173.055C172.537 45.2635 171.894 45.531 171.126 45.531C170.573 45.531 170.129 45.3886 169.792 45.1038C169.456 44.8104 169.287 44.4047 169.287 43.8869C169.296 42.4628 170.534 41.7724 173.003 41.8155L173.016 40.6763C173.024 39.6751 172.645 39.1702 171.876 39.1616C171.419 39.1616 171.013 39.2263 170.66 39.3558L170.491 40.7281C170.319 40.7885 170.129 40.8057 169.922 40.7798C169.74 40.1239 169.654 39.5629 169.663 39.0969C170.379 38.7516 171.233 38.579 172.226 38.579C172.968 38.5704 173.495 38.7603 173.805 39.1486C174.116 39.537 174.271 40.2232 174.271 41.2071Z" fill="white"/>
<path d="M164.34 41.8155V42.0744C164.34 42.9374 164.513 43.6106 164.858 44.094C165.212 44.5773 165.691 44.8189 166.295 44.8189C166.684 44.8189 166.994 44.7844 167.227 44.7154C167.46 44.6377 167.754 44.478 168.108 44.2364C168.246 44.2968 168.323 44.4003 168.341 44.5471C167.745 45.1944 167.05 45.5223 166.256 45.531C165.264 45.531 164.47 45.2203 163.874 44.5988C163.279 43.9774 162.977 43.136 162.968 42.0744C162.977 40.9869 163.287 40.1411 163.9 39.537C164.522 38.9242 165.285 38.6178 166.192 38.6178C166.925 38.6178 167.482 38.8681 167.862 39.3687C168.25 39.8606 168.444 40.5295 168.444 41.3753C168.444 41.522 168.44 41.6342 168.431 41.7119L168.25 41.8543L164.34 41.8155ZM166.179 39.1745C165.773 39.1745 165.398 39.36 165.052 39.7312C164.716 40.0936 164.496 40.6115 164.392 41.2847L167.214 41.1293C167.214 40.4389 167.137 39.9426 166.981 39.6405C166.835 39.3298 166.567 39.1745 166.179 39.1745Z" fill="white"/>
<path d="M158.196 43.369L158.325 44.7413C158.61 44.8966 159.003 44.9743 159.503 44.9743C159.883 44.9743 160.202 44.8923 160.461 44.7283C160.729 44.5643 160.863 44.3184 160.863 43.9904C160.863 43.6969 160.733 43.4423 160.474 43.2266C160.215 43.0022 159.771 42.7433 159.141 42.4498C158.597 42.1995 158.196 41.9147 157.937 41.5954C157.686 41.276 157.561 40.8661 157.561 40.3655C157.561 39.7786 157.773 39.3385 158.196 39.045C158.619 38.7516 159.171 38.6049 159.853 38.6049C160.517 38.6049 161.147 38.7257 161.743 38.9673C161.743 39.0019 161.743 39.0493 161.743 39.1098C161.751 39.1702 161.756 39.2176 161.756 39.2522C161.756 39.7614 161.674 40.2576 161.51 40.7409C161.423 40.7582 161.359 40.7668 161.316 40.7668C161.186 40.7668 161.057 40.7409 160.927 40.6892L160.72 39.291C160.453 39.2133 160.176 39.1745 159.892 39.1745C159.538 39.1745 159.24 39.2478 158.998 39.3946C158.765 39.5413 158.644 39.7786 158.636 40.1066C158.636 40.4 158.744 40.6503 158.959 40.8575C159.175 41.0646 159.581 41.3106 160.176 41.5954C160.875 41.932 161.363 42.2513 161.639 42.5534C161.915 42.8555 162.054 43.2352 162.054 43.6926C162.054 44.2795 161.825 44.7413 161.367 45.0779C160.919 45.4058 160.327 45.5698 159.594 45.5698C158.688 45.5871 157.958 45.4145 157.406 45.052V44.8319C157.397 44.2881 157.475 43.7833 157.639 43.3172C157.691 43.3086 157.734 43.3043 157.768 43.3043C157.924 43.3043 158.066 43.3258 158.196 43.369Z" fill="white"/>
<path d="M152.342 41.8155V42.0744C152.342 42.9374 152.515 43.6106 152.86 44.094C153.214 44.5773 153.693 44.8189 154.297 44.8189C154.686 44.8189 154.996 44.7844 155.229 44.7154C155.462 44.6377 155.756 44.478 156.11 44.2364C156.248 44.2968 156.326 44.4003 156.343 44.5471C155.747 45.1944 155.053 45.5223 154.258 45.531C153.266 45.531 152.472 45.2203 151.876 44.5988C151.281 43.9774 150.979 43.136 150.97 42.0744C150.979 40.9869 151.29 40.1411 151.902 39.537C152.524 38.9242 153.288 38.6178 154.194 38.6178C154.927 38.6178 155.484 38.8681 155.864 39.3687C156.252 39.8606 156.446 40.5295 156.446 41.3753C156.446 41.522 156.442 41.6342 156.433 41.7119L156.252 41.8543L152.342 41.8155ZM154.181 39.1745C153.775 39.1745 153.4 39.36 153.055 39.7312C152.718 40.0936 152.498 40.6115 152.394 41.2847L155.217 41.1293C155.217 40.4389 155.139 39.9426 154.983 39.6405C154.837 39.3298 154.569 39.1745 154.181 39.1745Z" fill="white"/>
<path d="M145.148 41.2329V44.6636L146.145 44.9225C146.171 45.0865 146.149 45.2375 146.08 45.3756C145.303 45.3325 144.777 45.3109 144.501 45.3109C144.121 45.3109 143.53 45.3325 142.727 45.3756C142.701 45.2116 142.71 45.0606 142.753 44.9225C143.133 44.8794 143.478 44.7931 143.789 44.6636V36.896L142.792 36.6371C142.766 36.4731 142.787 36.3221 142.856 36.184C143.581 36.2358 144.194 36.2573 144.695 36.2487L145.912 36.171C146.999 36.1106 147.875 36.3048 148.54 36.7536C149.204 37.1938 149.537 37.8367 149.537 38.6826C149.537 39.8045 148.945 40.564 147.763 40.961V41.0128C147.858 41.0732 147.953 41.2113 148.048 41.4271C148.764 43.041 149.196 43.9645 149.342 44.1975C149.558 44.5859 149.795 44.8103 150.054 44.8707C150.158 44.8966 150.279 44.9096 150.417 44.9096L150.572 44.8966C150.641 45.0002 150.667 45.1383 150.65 45.3109C150.546 45.4317 150.262 45.4965 149.795 45.5051C149.226 45.5051 148.755 45.2807 148.384 44.8319C148.238 44.6593 148.095 44.4263 147.957 44.1328C147.819 43.8307 147.633 43.4035 147.4 42.8512C147.176 42.2988 146.93 41.7551 146.663 41.22C146.378 41.2459 146.089 41.2588 145.795 41.2588C145.64 41.2588 145.424 41.2502 145.148 41.2329ZM148.268 38.7602C148.268 38.1302 148.061 37.6426 147.646 37.2973C147.241 36.9435 146.723 36.7665 146.093 36.7665C145.817 36.7665 145.502 36.814 145.148 36.909V40.6374C145.398 40.6978 145.657 40.728 145.925 40.728C146.667 40.728 147.241 40.5554 147.646 40.2102C148.061 39.8563 148.268 39.373 148.268 38.7602Z" fill="white"/>
<path d="M188.563 27.1865L188.693 28.5588C188.977 28.7141 189.37 28.7918 189.871 28.7918C190.25 28.7918 190.57 28.7098 190.829 28.5458C191.096 28.3818 191.23 28.1359 191.23 27.8079C191.23 27.5145 191.101 27.2598 190.842 27.0441C190.583 26.8197 190.138 26.5608 189.508 26.2673C188.964 26.017 188.563 25.7322 188.304 25.4129C188.054 25.0936 187.929 24.6836 187.929 24.183C187.929 23.5961 188.14 23.156 188.563 22.8625C188.986 22.5691 189.538 22.4224 190.22 22.4224C190.885 22.4224 191.515 22.5432 192.11 22.7849C192.11 22.8194 192.11 22.8668 192.11 22.9273C192.119 22.9877 192.123 23.0351 192.123 23.0697C192.123 23.5789 192.041 24.0751 191.877 24.5585C191.791 24.5757 191.726 24.5843 191.683 24.5843C191.554 24.5843 191.424 24.5585 191.295 24.5067L191.088 23.1085C190.82 23.0308 190.544 22.992 190.259 22.992C189.905 22.992 189.607 23.0653 189.366 23.2121C189.133 23.3588 189.012 23.5961 189.003 23.9241C189.003 24.2175 189.111 24.4678 189.327 24.675C189.543 24.8821 189.948 25.1281 190.544 25.4129C191.243 25.7495 191.731 26.0688 192.007 26.3709C192.283 26.673 192.421 27.0527 192.421 27.5101C192.421 28.097 192.192 28.5588 191.735 28.8954C191.286 29.2233 190.695 29.3873 189.961 29.3873C189.055 29.4046 188.326 29.232 187.773 28.8695V28.6494C187.765 28.1057 187.842 27.6008 188.006 27.1347C188.058 27.1261 188.101 27.1218 188.136 27.1218C188.291 27.1218 188.434 27.1433 188.563 27.1865Z" fill="white"/>
<path d="M182.975 27.1865L183.105 28.5588C183.389 28.7141 183.782 28.7918 184.283 28.7918C184.662 28.7918 184.982 28.7098 185.241 28.5458C185.508 28.3818 185.642 28.1359 185.642 27.8079C185.642 27.5145 185.512 27.2598 185.254 27.0441C184.995 26.8197 184.55 26.5608 183.92 26.2673C183.376 26.017 182.975 25.7322 182.716 25.4129C182.466 25.0936 182.341 24.6836 182.341 24.183C182.341 23.5961 182.552 23.156 182.975 22.8625C183.398 22.5691 183.95 22.4224 184.632 22.4224C185.297 22.4224 185.927 22.5432 186.522 22.7849C186.522 22.8194 186.522 22.8668 186.522 22.9273C186.531 22.9877 186.535 23.0351 186.535 23.0697C186.535 23.5789 186.453 24.0751 186.289 24.5585C186.203 24.5757 186.138 24.5843 186.095 24.5843C185.966 24.5843 185.836 24.5585 185.707 24.5067L185.5 23.1085C185.232 23.0308 184.956 22.992 184.671 22.992C184.317 22.992 184.019 23.0653 183.778 23.2121C183.545 23.3588 183.424 23.5961 183.415 23.9241C183.415 24.2175 183.523 24.4678 183.739 24.675C183.955 24.8821 184.36 25.1281 184.956 25.4129C185.655 25.7495 186.142 26.0688 186.419 26.3709C186.695 26.673 186.833 27.0527 186.833 27.5101C186.833 28.097 186.604 28.5588 186.147 28.8954C185.698 29.2233 185.107 29.3873 184.373 29.3873C183.467 29.4046 182.738 29.232 182.185 28.8695V28.6494C182.177 28.1057 182.254 27.6008 182.418 27.1347C182.47 27.1261 182.513 27.1218 182.548 27.1218C182.703 27.1218 182.846 27.1433 182.975 27.1865Z" fill="white"/>
<path d="M177.122 25.633V25.8919C177.122 26.7549 177.295 27.4281 177.64 27.9115C177.994 28.3948 178.473 28.6364 179.077 28.6364C179.465 28.6364 179.776 28.6019 180.009 28.5329C180.242 28.4552 180.535 28.2955 180.889 28.0539C181.027 28.1143 181.105 28.2178 181.122 28.3646C180.527 29.0119 179.832 29.3398 179.038 29.3485C178.045 29.3485 177.251 29.0378 176.656 28.4164C176.06 27.7949 175.758 26.9535 175.75 25.8919C175.758 24.8044 176.069 23.9586 176.682 23.3545C177.303 22.7417 178.067 22.4353 178.973 22.4353C179.707 22.4353 180.263 22.6856 180.643 23.1862C181.032 23.6781 181.226 24.347 181.226 25.1928C181.226 25.3395 181.221 25.4517 181.213 25.5294L181.032 25.6718L177.122 25.633ZM178.96 22.992C178.555 22.992 178.179 23.1775 177.834 23.5487C177.497 23.9111 177.277 24.429 177.174 25.1022L179.996 24.9468C179.996 24.2564 179.918 23.7601 179.763 23.458C179.616 23.1473 179.349 22.992 178.96 22.992Z" fill="white"/>
<path d="M170.008 22.6424L169.969 23.5228L169.982 23.5357C170.707 22.828 171.518 22.4655 172.416 22.4482C172.985 22.4482 173.43 22.6122 173.749 22.9402C174.068 23.2595 174.228 23.7213 174.228 24.3254L174.241 28.4811L175.147 28.74C175.173 28.904 175.152 29.055 175.082 29.1931C174.392 29.15 173.896 29.1284 173.594 29.1284C173.283 29.1284 172.774 29.15 172.066 29.1931C172.04 29.0291 172.049 28.8781 172.092 28.74C172.36 28.6882 172.644 28.6019 172.946 28.4811V24.908C172.946 24.3384 172.856 23.937 172.675 23.704C172.502 23.471 172.213 23.3545 171.807 23.3545C171.108 23.3545 170.53 23.6134 170.072 24.1312V28.4811L170.94 28.74C170.966 28.904 170.944 29.055 170.875 29.1931C170.185 29.15 169.701 29.1284 169.425 29.1284C169.166 29.1284 168.64 29.15 167.846 29.1931C167.82 29.0291 167.828 28.8781 167.872 28.74C168.286 28.6364 168.588 28.5501 168.778 28.4811V23.4321L167.703 23.3286C167.677 23.156 167.699 23.0049 167.768 22.8755C168.433 22.7633 169.032 22.6467 169.568 22.5259C169.714 22.5345 169.861 22.5734 170.008 22.6424Z" fill="white"/>
<path d="M164.583 20.4675C164.583 20.3036 164.682 20.1353 164.88 19.9627C165.079 19.79 165.286 19.7037 165.502 19.7037C165.718 19.7037 165.903 19.803 166.059 20.0015C166.214 20.1914 166.292 20.3856 166.292 20.5841C166.292 20.7567 166.192 20.9293 165.994 21.1019C165.804 21.2659 165.597 21.3479 165.372 21.3479C165.174 21.3479 164.993 21.2529 164.829 21.0631C164.665 20.8646 164.583 20.6661 164.583 20.4675ZM166.369 22.6684V28.4811L167.237 28.74C167.263 28.904 167.241 29.0551 167.172 29.1931C166.395 29.15 165.912 29.1284 165.722 29.1284C165.463 29.1284 164.937 29.15 164.143 29.1931C164.117 29.0292 164.125 28.8781 164.168 28.74C164.652 28.6278 164.954 28.5415 165.075 28.4811V23.4322L164 23.3286C163.974 23.156 163.996 23.005 164.065 22.8755C164.781 22.7719 165.385 22.6554 165.877 22.526C166.024 22.5346 166.188 22.5821 166.369 22.6684Z" fill="white"/>
<path d="M159.422 27.1865L159.551 28.5588C159.836 28.7141 160.229 28.7918 160.729 28.7918C161.109 28.7918 161.429 28.7098 161.687 28.5458C161.955 28.3818 162.089 28.1359 162.089 27.8079C162.089 27.5145 161.959 27.2598 161.7 27.0441C161.442 26.8197 160.997 26.5608 160.367 26.2673C159.823 26.017 159.422 25.7322 159.163 25.4129C158.913 25.0936 158.788 24.6836 158.788 24.183C158.788 23.5961 158.999 23.156 159.422 22.8625C159.845 22.5691 160.397 22.4224 161.079 22.4224C161.744 22.4224 162.374 22.5432 162.969 22.7849C162.969 22.8194 162.969 22.8668 162.969 22.9273C162.978 22.9877 162.982 23.0351 162.982 23.0697C162.982 23.5789 162.9 24.0751 162.736 24.5585C162.65 24.5757 162.585 24.5843 162.542 24.5843C162.412 24.5843 162.283 24.5585 162.154 24.5067L161.946 23.1085C161.679 23.0308 161.403 22.992 161.118 22.992C160.764 22.992 160.466 23.0653 160.225 23.2121C159.992 23.3588 159.871 23.5961 159.862 23.9241C159.862 24.2175 159.97 24.4678 160.186 24.675C160.402 24.8821 160.807 25.1281 161.403 25.4129C162.102 25.7495 162.589 26.0688 162.866 26.3709C163.142 26.673 163.28 27.0527 163.28 27.5101C163.28 28.097 163.051 28.5588 162.594 28.8954C162.145 29.2233 161.554 29.3873 160.82 29.3873C159.914 29.4046 159.185 29.232 158.632 28.8695V28.6494C158.624 28.1057 158.701 27.6008 158.865 27.1347C158.917 27.1261 158.96 27.1218 158.995 27.1218C159.15 27.1218 159.292 27.1433 159.422 27.1865Z" fill="white"/>
<path d="M157.016 28.5071C157.137 28.5934 157.439 28.6797 157.922 28.766C157.948 28.9213 157.927 29.0724 157.857 29.2191C157.538 29.2795 157.184 29.3097 156.796 29.3097C156.52 29.3097 156.278 29.2838 156.071 29.232L155.851 28.274H155.786C155.355 28.6624 154.949 28.9386 154.569 29.1026C154.198 29.2579 153.788 29.3356 153.339 29.3356C152.174 29.3356 151.592 28.6883 151.592 27.3937V23.4322L150.647 23.3287C150.621 23.156 150.642 23.005 150.711 22.8755C151.238 22.7979 151.799 22.6814 152.394 22.526C152.541 22.5346 152.705 22.5821 152.886 22.6684V27.1995C152.886 27.6828 152.985 28.0108 153.184 28.1834C153.382 28.356 153.689 28.438 154.103 28.4294C154.371 28.4294 154.656 28.3517 154.958 28.1963C155.26 28.0324 155.514 27.8339 155.721 27.6008V23.4322L154.776 23.3287C154.75 23.156 154.772 23.005 154.841 22.8755C155.368 22.7979 155.929 22.6814 156.524 22.526C156.671 22.5346 156.835 22.5821 157.016 22.6684V28.5071Z" fill="white"/>
<path d="M146.481 29.1931L144.501 29.1284C144.121 29.1284 143.53 29.15 142.727 29.1931C142.701 29.0291 142.71 28.8781 142.753 28.74C143.115 28.6882 143.461 28.6019 143.789 28.4811V20.7135L142.792 20.4546C142.766 20.2906 142.787 20.1396 142.856 20.0015C143.633 20.0446 144.16 20.0662 144.436 20.0662L146.171 20.0532C148.302 20.036 149.377 20.7308 149.394 22.1376C149.394 22.6985 149.2 23.1732 148.812 23.5616C148.432 23.9414 147.957 24.1787 147.388 24.2736V24.2995C149.096 24.4894 149.951 25.2791 149.951 26.6687C149.951 27.1347 149.856 27.5403 149.666 27.8856C149.476 28.2222 149.213 28.4854 148.876 28.6753C148.54 28.8565 148.173 28.9903 147.776 29.0766C147.388 29.1543 146.956 29.1931 146.481 29.1931ZM145.148 28.5458L146.326 28.6106C147.12 28.6106 147.685 28.4423 148.022 28.1057C148.358 27.7604 148.518 27.2771 148.501 26.6557C148.501 25.948 148.315 25.4474 147.944 25.154C147.582 24.8519 146.956 24.7009 146.067 24.7009H145.148V28.5458ZM145.148 24.0536H145.899C146.658 24.0536 147.198 23.9025 147.517 23.6005C147.845 23.2897 148.009 22.8194 148.009 22.1893C148.009 21.6456 147.836 21.2572 147.491 21.0242C147.154 20.7825 146.589 20.6617 145.795 20.6617C145.674 20.6617 145.459 20.6703 145.148 20.6876V24.0536Z" fill="white"/>
<path d="M112.427 48.4305L99.776 74.2601V80H129.776V0H99.776V6.81614L112.427 33.3632L116.764 26.5471H124.716L116.764 40.8969L124.716 54.8879H116.764L112.427 48.4305Z" fill="white"/>
<path d="M99.776 57V24L107.776 41.2021L99.776 57Z" fill="white"/>
</svg>
